<svg width="16" height="16" viewBox="0 0 16 16" fill="none" xmlns="http://www.w3.org/2000/svg">
<path fill-rule="evenodd" clip-rule="evenodd" d="M7.66975 2.50677C8.0017 2.83871 8.0017 3.3769 7.66976 3.70885L3.52394 7.85471C3.07066 8.31802 2.81815 8.94134 2.82124 9.58962C2.82434 10.2391 3.08375 10.8611 3.54306 11.3204C4.00238 11.7796 4.62445 12.0389 5.27395 12.0418C5.92225 12.0448 6.54557 11.7921 7.00879 11.3387L12.9337 5.41283C13.0904 5.25619 13.1786 5.04354 13.1787 4.82199C13.1787 4.60046 13.0908 4.38795 12.9341 4.23123C12.7775 4.07453 12.565 3.98647 12.3434 3.98642C12.1219 3.98638 11.9094 4.07431 11.7528 4.23086V4.23086L5.87112 10.1125C5.53918 10.4444 5.00099 10.4444 4.66904 10.1125C4.3371 9.78055 4.3371 9.24236 4.66904 8.91041L10.5507 3.02877C11.0263 2.55339 11.6714 2.28628 12.3438 2.28642C13.0162 2.28656 13.6611 2.55383 14.1364 3.0294C14.6118 3.50496 14.8788 4.14989 14.8787 4.82235C14.8785 5.4947 14.6113 6.13945 14.1359 6.61481L8.20237 12.5493C7.4191 13.3183 6.36382 13.7468 5.26621 13.7418C4.16858 13.7368 3.11733 13.2986 2.3411 12.5226C1.56486 11.7465 1.1265 10.6953 1.12126 9.59772C1.11603 8.5001 1.54438 7.4448 2.31318 6.66136L2.31879 6.65564L6.46767 2.50678C6.79961 2.17483 7.3378 2.17482 7.66975 2.50677Z" fill="#A3A3A3"/>
</svg>
