<svg width="40" height="40" viewBox="0 0 40 40" fill="none" xmlns="http://www.w3.org/2000/svg">
<path d="M35.5338 1.4966C35.3219 1.4966 35.1174 1.58108 34.9677 1.73077L25.9238 10.7746C25.5384 11.16 24.8893 10.7865 25.0316 10.2589L27.1095 2.50296C27.2458 1.99459 26.862 1.49512 26.3358 1.49512H23.1567C22.795 1.49512 22.4779 1.73818 22.383 2.08796L20.7883 8.03718C20.6919 8.39881 20.6919 8.77972 20.7883 9.14135L21.9325 13.4113C22.5416 15.6819 24.3142 17.456 26.5848 18.0637L30.8548 19.2079C31.2164 19.3042 31.5973 19.3042 31.959 19.2079L37.9082 17.6131C38.258 17.5198 38.501 17.2026 38.501 16.8395V13.6588C38.501 13.1342 38.0045 12.7518 37.4976 12.8881C34.772 13.6188 31.6774 14.4473 29.7358 14.9675C29.2096 15.1083 28.8361 14.4607 29.2215 14.0753L38.2669 5.02996C38.4165 4.88027 38.501 4.67574 38.501 4.4638C38.504 2.82754 37.1745 1.4966 35.5338 1.4966Z" fill="#1C1C1C"/>
<path d="M35.5338 38.5003C35.3219 38.5003 35.1174 38.4159 34.9677 38.2662L25.9238 29.2223C25.5384 28.8369 24.8893 29.2104 25.0316 29.7381L27.1095 37.494C27.2458 38.0023 26.862 38.5018 26.3358 38.5018H23.1567C22.795 38.5018 22.4779 38.2587 22.383 37.909L20.7883 31.9598C20.6919 31.5981 20.6919 31.2172 20.7883 30.8556L21.9325 26.5856C22.5416 24.315 24.3142 22.5409 26.5848 21.9332L30.8548 20.7891C31.2164 20.6927 31.5973 20.6927 31.959 20.7891L37.9082 22.3838C38.258 22.4772 38.501 22.7944 38.501 23.1575V26.3381C38.501 26.8628 38.0045 27.2451 37.4976 27.1088C34.772 26.3781 31.6774 25.5496 29.7358 25.0294C29.2096 24.8886 28.8361 25.5363 29.2215 25.9216L38.2669 34.967C38.4165 35.1167 38.501 35.3212 38.501 35.5331C38.501 37.1738 37.1701 38.5048 35.5294 38.5048L35.5338 38.5003Z" fill="#1C1C1C"/>
<path d="M4.47105 1.49707C4.683 1.49707 4.88753 1.58155 5.03722 1.73124L14.0811 10.7751C14.4664 11.1605 15.1156 10.787 14.9733 10.2593L12.8954 2.50343C12.759 1.99654 13.1429 1.49707 13.6691 1.49707H16.8482C17.2098 1.49707 17.527 1.74014 17.6219 2.08992L19.2166 8.03913C19.313 8.40077 19.313 8.78167 19.2166 9.14331L18.0724 13.4133C17.4633 15.6839 15.6907 17.458 13.4201 18.0656L9.15009 19.2098C8.78846 19.3062 8.40755 19.3062 8.04592 19.2098L2.0967 17.6151C1.74248 17.5247 1.49941 17.2075 1.49941 16.8444V13.6638C1.49941 13.1391 1.9974 12.7552 2.50429 12.8916C5.22841 13.6223 8.32159 14.4508 10.2632 14.971C10.7908 15.1118 11.1643 14.4641 10.7775 14.0788L1.73358 5.03488C1.58389 4.88371 1.49941 4.68066 1.49941 4.46871C1.49941 2.82801 2.83035 1.49707 4.47105 1.49707Z" fill="#1C1C1C"/>
<path d="M4.47105 38.5003C4.683 38.5003 4.88753 38.4159 5.03722 38.2662L14.0811 29.2223C14.4664 28.8369 15.1156 29.2104 14.9733 29.7381L12.8954 37.494C12.759 38.0023 13.1429 38.5018 13.6691 38.5018H16.8482C17.2098 38.5018 17.527 38.2587 17.6219 37.909L19.2166 31.9598C19.313 31.5981 19.313 31.2172 19.2166 30.8556L18.0724 26.5856C17.4633 24.315 15.6907 22.5409 13.4201 21.9332L9.15009 20.7891C8.78846 20.6927 8.40755 20.6927 8.04592 20.7891L2.0967 22.3838C1.74248 22.4742 1.49941 22.7914 1.49941 23.153V26.3336C1.49941 26.8583 1.9974 27.2422 2.50429 27.1058C5.22841 26.3751 8.32159 25.5466 10.2632 25.0264C10.7908 24.8856 11.1643 25.5333 10.7775 25.9187L1.73358 34.964C1.58389 35.1137 1.49941 35.3167 1.49941 35.5302C1.49941 37.1709 2.83035 38.5018 4.47105 38.5018V38.5003Z" fill="#1C1C1C"/>
</svg>
