<svg width="17" height="16" viewBox="0 0 17 16" fill="none" xmlns="http://www.w3.org/2000/svg">
<path fill-rule="evenodd" clip-rule="evenodd" d="M14.2588 3.7H4.25879C4.0931 3.7 3.95879 3.83431 3.95879 4H2.25879C2.25879 2.89543 3.15422 2 4.25879 2H14.2588C15.3634 2 16.2588 2.89543 16.2588 4V12C16.2588 13.1046 15.3634 14 14.2588 14H4.25879C3.15422 14 2.25879 13.1046 2.25879 12H3.95879C3.95879 12.1657 4.0931 12.3 4.25879 12.3H14.2588C14.4245 12.3 14.5588 12.1657 14.5588 12V4C14.5588 3.83431 14.4245 3.7 14.2588 3.7ZM5.76953 7.10083C5.75391 6.86646 5.69661 6.6425 5.59766 6.42896C5.5013 6.21541 5.36198 6.02531 5.17969 5.85864C4.9974 5.68937 4.77344 5.55656 4.50781 5.46021C4.24219 5.36385 3.9349 5.31567 3.58594 5.31567C3.07812 5.31567 2.64844 5.41854 2.29688 5.62427C1.94531 5.83 1.67839 6.11515 1.49609 6.47974C1.3138 6.84172 1.22266 7.26099 1.22266 7.73755V8.37817C1.22266 8.72713 1.26823 9.05135 1.35938 9.35083C1.45312 9.64771 1.59635 9.90812 1.78906 10.1321C1.98177 10.3534 2.22656 10.5266 2.52344 10.6516C2.82031 10.7766 3.17318 10.8391 3.58203 10.8391C3.96484 10.8391 4.29427 10.7857 4.57031 10.679C4.84896 10.5696 5.07682 10.4224 5.25391 10.2375C5.43359 10.05 5.56641 9.83781 5.65234 9.60083C5.73828 9.36125 5.78125 9.11125 5.78125 8.85083V7.81177H3.64062V8.71411H4.57031V8.94849C4.57031 9.09692 4.53516 9.23494 4.46484 9.36255C4.39453 9.49015 4.28776 9.59302 4.14453 9.67114C4.0013 9.74927 3.82161 9.78833 3.60547 9.78833C3.34245 9.78833 3.13021 9.72713 2.96875 9.60474C2.8099 9.47974 2.69401 9.31047 2.62109 9.09692C2.55078 8.88338 2.51562 8.6425 2.51562 8.37427V7.74927C2.51562 7.30916 2.60677 6.96932 2.78906 6.72974C2.97135 6.48755 3.23307 6.36646 3.57422 6.36646C3.70964 6.36646 3.83073 6.38468 3.9375 6.42114C4.04688 6.4576 4.14193 6.50968 4.22266 6.57739C4.30339 6.6451 4.36849 6.72323 4.41797 6.81177C4.46745 6.90031 4.5013 6.99666 4.51953 7.10083H5.76953ZM8.09766 10.7415V5.40942H6.8125V10.7415H8.09766ZM10.6211 8.72974V10.7415H9.33594V5.40942H12.8867V6.44067H10.6211V7.72974H12.6797V8.72974H10.6211Z" fill="#A3A3A3"/>
</svg>
