<svg width="16" height="16" viewBox="0 0 16 16" fill="none" xmlns="http://www.w3.org/2000/svg">
<circle cx="8" cy="8" r="6.525" stroke="#A3A3A3" stroke-width="1.7"/>
<path d="M5.81836 5.33594C6.42574 5.33594 6.91873 5.82821 6.91895 6.43555C6.91895 7.04306 6.42587 7.53613 5.81836 7.53613C5.21103 7.53592 4.71875 7.04293 4.71875 6.43555C4.71896 5.82834 5.21116 5.33615 5.81836 5.33594ZM10.1816 5.33594C10.789 5.33594 11.282 5.82821 11.2822 6.43555C11.2822 7.04306 10.7892 7.53613 10.1816 7.53613C9.57431 7.53592 9.08203 7.04293 9.08203 6.43555C9.08224 5.82834 9.57444 5.33615 10.1816 5.33594Z" fill="#A3A3A3"/>
<path d="M10 10C9.55973 10.6045 8.82811 11 8 11C7.17189 11 6.44027 10.6045 6 10" stroke="#A3A3A3" stroke-width="1.7" stroke-linecap="round"/>
</svg>
